<?xml version="1.0" encoding="UTF-8" standalone="no"?>
<!-- Created with Inkscape (http://www.inkscape.org/) -->

<svg
   xmlns:dc="http://purl.org/dc/elements/1.1/"
   xmlns:cc="http://creativecommons.org/ns#"
   xmlns:rdf="http://www.w3.org/1999/02/22-rdf-syntax-ns#"
   xmlns:svg="http://www.w3.org/2000/svg"
   xmlns="http://www.w3.org/2000/svg"
   xmlns:sodipodi="http://sodipodi.sourceforge.net/DTD/sodipodi-0.dtd"
   xmlns:inkscape="http://www.inkscape.org/namespaces/inkscape"
   width="161.99413mm"
   height="114.37244mm"
   viewBox="0 0 161.99413 114.37244"
   version="1.1"
   id="svg8"
   sodipodi:docname="sites2.svg"
   inkscape:version="0.92.2 5c3e80d, 2017-08-06">
  <defs
     id="defs2" />
  <sodipodi:namedview
     id="base"
     pagecolor="#ffffff"
     bordercolor="#666666"
     borderopacity="1.0"
     inkscape:pageopacity="0.0"
     inkscape:pageshadow="2"
     inkscape:zoom="1.979899"
     inkscape:cx="155.14299"
     inkscape:cy="45.054915"
     inkscape:document-units="mm"
     inkscape:current-layer="g862"
     showgrid="false"
     fit-margin-top="0"
     fit-margin-left="0"
     fit-margin-right="0"
     fit-margin-bottom="0"
     inkscape:window-width="2560"
     inkscape:window-height="1600"
     inkscape:window-x="0"
     inkscape:window-y="0"
     inkscape:window-maximized="0" />
  <metadata
     id="metadata5">
    <rdf:RDF>
      <cc:Work
         rdf:about="">
        <dc:format>image/svg+xml</dc:format>
        <dc:type
           rdf:resource="http://purl.org/dc/dcmitype/StillImage" />
        <dc:title></dc:title>
      </cc:Work>
    </rdf:RDF>
  </metadata>
  <g
     inkscape:label="Layer 1"
     inkscape:groupmode="layer"
     id="layer1"
     transform="translate(-19.39431,20.233838)">
    <g
       id="g862">
      <circle
         r="2.0045214"
         cy="27.687963"
         cx="35.2673"
         id="path815"
         style="opacity:1;fill:#000000;fill-opacity:1;stroke:#000000;stroke-width:0.5;stroke-miterlimit:4;stroke-dasharray:none;stroke-dashoffset:0;stroke-opacity:1" />
      <circle
         style="opacity:1;fill:#000000;fill-opacity:1;stroke:#000000;stroke-width:0.5;stroke-miterlimit:4;stroke-dasharray:none;stroke-dashoffset:0;stroke-opacity:1"
         id="circle828"
         cx="32.035984"
         cy="46.550415"
         r="2.0045214" />
      <circle
         r="2.0045214"
         cy="37.144085"
         cx="42.098209"
         id="circle830"
         style="opacity:1;fill:#000000;fill-opacity:1;stroke:#000000;stroke-width:0.5;stroke-miterlimit:4;stroke-dasharray:none;stroke-dashoffset:0;stroke-opacity:1" />
      <circle
         style="opacity:1;fill:#000000;fill-opacity:1;stroke:#000000;stroke-width:0.5;stroke-miterlimit:4;stroke-dasharray:none;stroke-dashoffset:0;stroke-opacity:1"
         id="circle832"
         cx="52.527763"
         cy="32.709579"
         r="2.0045214" />
      <circle
         style="opacity:1;fill:#000000;fill-opacity:1;stroke:#000000;stroke-width:0.5;stroke-miterlimit:4;stroke-dasharray:none;stroke-dashoffset:0;stroke-opacity:1"
         id="circle834"
         cx="47.414436"
         cy="51.285767"
         r="2.0045214" />
      <circle
         style="opacity:1;fill:none;fill-opacity:1;stroke:#000000;stroke-width:0.5;stroke-miterlimit:4;stroke-dasharray:none;stroke-dashoffset:0;stroke-opacity:1"
         id="path878"
         cx="42.562672"
         cy="39.018085"
         r="22.918362" />
      <path
         style="fill:none;fill-rule:evenodd;stroke:#000000;stroke-width:0.265;stroke-linecap:butt;stroke-linejoin:miter;stroke-opacity:1;stroke-miterlimit:4;stroke-dasharray:none"
         d="M 32.316964,46.496279 47.530506,51.504463 52.633183,32.794641 35.340774,27.691964 Z"
         id="path882"
         inkscape:connector-curvature="0" />
      <path
         style="fill:none;fill-rule:evenodd;stroke:#000000;stroke-width:0.265;stroke-linecap:butt;stroke-linejoin:miter;stroke-opacity:1;stroke-miterlimit:4;stroke-dasharray:none"
         d="m 35.340774,27.691963 6.80357,9.638393 10.488839,-4.535715"
         id="path884"
         inkscape:connector-curvature="0" />
      <path
         style="fill:none;fill-rule:evenodd;stroke:#000000;stroke-width:0.265;stroke-linecap:butt;stroke-linejoin:miter;stroke-opacity:1;stroke-miterlimit:4;stroke-dasharray:none"
         d="m 47.530506,51.504463 -5.386162,-14.174107 -9.82738,9.165923"
         id="path886"
         inkscape:connector-curvature="0" />
      <rect
         style="opacity:1;fill:none;fill-opacity:1;stroke:#000000;stroke-width:0.5;stroke-miterlimit:4;stroke-dasharray:none;stroke-dashoffset:0;stroke-opacity:1"
         id="rect888"
         width="3.7797618"
         height="3.7797618"
         x="55.184521"
         y="45.267857"
         ry="0.20045204" />
      <circle
         r="2.0045214"
         cy="-8.3955984"
         cx="114.97993"
         id="path815-3"
         style="opacity:1;fill:#000000;fill-opacity:1;stroke:#000000;stroke-width:0.5;stroke-miterlimit:4;stroke-dasharray:none;stroke-dashoffset:0;stroke-opacity:1" />
      <circle
         style="opacity:1;fill:#000000;fill-opacity:1;stroke:#000000;stroke-width:0.5;stroke-miterlimit:4;stroke-dasharray:none;stroke-dashoffset:0;stroke-opacity:1"
         id="circle828-6"
         cx="111.74861"
         cy="10.466853"
         r="2.0045214" />
      <circle
         r="2.0045214"
         cy="1.0605229"
         cx="121.81084"
         id="circle830-7"
         style="opacity:1;fill:#000000;fill-opacity:1;stroke:#000000;stroke-width:0.5;stroke-miterlimit:4;stroke-dasharray:none;stroke-dashoffset:0;stroke-opacity:1" />
      <circle
         style="opacity:1;fill:#000000;fill-opacity:1;stroke:#000000;stroke-width:0.5;stroke-miterlimit:4;stroke-dasharray:none;stroke-dashoffset:0;stroke-opacity:1"
         id="circle832-5"
         cx="132.24039"
         cy="-3.3739824"
         r="2.0045214" />
      <circle
         style="opacity:1;fill:#000000;fill-opacity:1;stroke:#000000;stroke-width:0.5;stroke-miterlimit:4;stroke-dasharray:none;stroke-dashoffset:0;stroke-opacity:1"
         id="circle834-3"
         cx="127.12706"
         cy="15.202205"
         r="2.0045214" />
      <circle
         style="opacity:1;fill:none;fill-opacity:1;stroke:#000000;stroke-width:0.5;stroke-miterlimit:4;stroke-dasharray:none;stroke-dashoffset:0;stroke-opacity:1"
         id="path878-5"
         cx="122.2753"
         cy="2.9345236"
         r="22.918362" />
      <path
         style="fill:none;fill-rule:evenodd;stroke:#000000;stroke-width:0.265;stroke-linecap:butt;stroke-linejoin:miter;stroke-opacity:1;stroke-miterlimit:4;stroke-dasharray:none"
         d="m 112.02959,10.412717 15.21354,5.008184 5.10268,-18.7098222 -17.29241,-5.102677 z"
         id="path882-6"
         inkscape:connector-curvature="0" />
      <path
         style="fill:none;fill-rule:evenodd;stroke:#000000;stroke-width:0.265;stroke-linecap:butt;stroke-linejoin:miter;stroke-opacity:1;stroke-miterlimit:4;stroke-dasharray:none"
         d="m 115.0534,-8.3915992 6.80357,9.638393 10.48884,-4.535715"
         id="path884-2"
         inkscape:connector-curvature="0" />
      <path
         style="fill:none;fill-rule:evenodd;stroke:#000000;stroke-width:0.265;stroke-linecap:butt;stroke-linejoin:miter;stroke-opacity:1;stroke-miterlimit:4;stroke-dasharray:none"
         d="M 127.24313,15.420901 121.85697,1.2467938 112.02959,10.412717"
         id="path886-9"
         inkscape:connector-curvature="0" />
      <rect
         style="opacity:1;fill:none;fill-opacity:1;stroke:#000000;stroke-width:0.5;stroke-miterlimit:4;stroke-dasharray:none;stroke-dashoffset:0;stroke-opacity:1"
         id="rect888-1"
         width="3.7797618"
         height="3.7797618"
         x="104.28108"
         y="-2.154989"
         ry="0.20045204" />
      <circle
         r="2.0045214"
         cy="59.640114"
         cx="108.17635"
         id="path815-2"
         style="opacity:1;fill:#000000;fill-opacity:1;stroke:#000000;stroke-width:0.5;stroke-miterlimit:4;stroke-dasharray:none;stroke-dashoffset:0;stroke-opacity:1" />
      <circle
         style="opacity:1;fill:#000000;fill-opacity:1;stroke:#000000;stroke-width:0.5;stroke-miterlimit:4;stroke-dasharray:none;stroke-dashoffset:0;stroke-opacity:1"
         id="circle828-7"
         cx="104.94504"
         cy="78.502563"
         r="2.0045214" />
      <circle
         r="2.0045214"
         cy="69.096237"
         cx="115.00726"
         id="circle830-0"
         style="opacity:1;fill:#000000;fill-opacity:1;stroke:#000000;stroke-width:0.5;stroke-miterlimit:4;stroke-dasharray:none;stroke-dashoffset:0;stroke-opacity:1" />
      <circle
         style="opacity:1;fill:#000000;fill-opacity:1;stroke:#000000;stroke-width:0.5;stroke-miterlimit:4;stroke-dasharray:none;stroke-dashoffset:0;stroke-opacity:1"
         id="circle832-9"
         cx="125.43682"
         cy="64.661728"
         r="2.0045214" />
      <circle
         style="opacity:1;fill:#000000;fill-opacity:1;stroke:#000000;stroke-width:0.5;stroke-miterlimit:4;stroke-dasharray:none;stroke-dashoffset:0;stroke-opacity:1"
         id="circle834-36"
         cx="120.32349"
         cy="83.237915"
         r="2.0045214" />
      <circle
         style="opacity:1;fill:none;fill-opacity:1;stroke:#000000;stroke-width:0.5;stroke-miterlimit:4;stroke-dasharray:none;stroke-dashoffset:0;stroke-opacity:1"
         id="path878-0"
         cx="115.47173"
         cy="70.970238"
         r="22.918362" />
      <path
         style="fill:none;fill-rule:evenodd;stroke:#000000;stroke-width:0.265;stroke-linecap:butt;stroke-linejoin:miter;stroke-opacity:1;stroke-miterlimit:4;stroke-dasharray:none"
         d="m 105.22602,78.448431 15.21354,5.008184 5.10267,-18.709822 -17.2924,-5.102677 z"
         id="path882-62"
         inkscape:connector-curvature="0" />
      <path
         style="fill:none;fill-rule:evenodd;stroke:#000000;stroke-width:0.265;stroke-linecap:butt;stroke-linejoin:miter;stroke-opacity:1;stroke-miterlimit:4;stroke-dasharray:none"
         d="m 108.24983,59.644115 6.80357,9.638393 10.48883,-4.535715"
         id="path884-6"
         inkscape:connector-curvature="0" />
      <path
         style="fill:none;fill-rule:evenodd;stroke:#000000;stroke-width:0.265;stroke-linecap:butt;stroke-linejoin:miter;stroke-opacity:1;stroke-miterlimit:4;stroke-dasharray:none"
         d="m 120.43956,83.456615 -5.38616,-14.174107 -9.82738,9.165923"
         id="path886-1"
         inkscape:connector-curvature="0" />
      <rect
         style="opacity:1;fill:none;fill-opacity:1;stroke:#000000;stroke-width:0.5;stroke-miterlimit:4;stroke-dasharray:none;stroke-dashoffset:0;stroke-opacity:1"
         id="rect888-8"
         width="3.7797618"
         height="3.7797618"
         x="117.51025"
         y="54.352448"
         ry="0.20045204" />
      <text
         xml:space="preserve"
         style="font-style:normal;font-weight:normal;font-size:10.58333302px;line-height:1000%;font-family:sans-serif;letter-spacing:0px;word-spacing:0px;fill:#000000;fill-opacity:1;stroke:none;stroke-width:0.26458332px;stroke-linecap:butt;stroke-linejoin:miter;stroke-opacity:1"
         x="40.542118"
         y="75.316963"
         id="text958"><tspan
           sodipodi:role="line"
           id="tspan956"
           x="40.542118"
           y="75.316963"
           style="text-align:center;text-anchor:middle;stroke-width:0.26458332px">Site 1</tspan></text>
      <text
         xml:space="preserve"
         style="font-style:normal;font-weight:normal;font-size:10.58333302px;line-height:1000%;font-family:sans-serif;text-align:start;letter-spacing:0px;word-spacing:0px;text-anchor:start;fill:#000000;fill-opacity:1;stroke:none;stroke-width:0.26458332px;stroke-linecap:butt;stroke-linejoin:miter;stroke-opacity:1"
         x="151.36441"
         y="6.8800192"
         id="text958-7"><tspan
           sodipodi:role="line"
           id="tspan956-9"
           x="151.36441"
           y="6.8800192"
           style="text-align:start;text-anchor:start;stroke-width:0.26458332px">Site 2</tspan></text>
      <path
         style="fill:none;fill-rule:evenodd;stroke:#000000;stroke-width:0.265;stroke-linecap:butt;stroke-linejoin:miter;stroke-opacity:1;stroke-miterlimit:4;stroke-dasharray:none"
         d="M 62.904544,28.345077 100.91964,11.438988"
         id="path978"
         inkscape:connector-curvature="0"
         sodipodi:nodetypes="cc" />
      <path
         style="fill:none;fill-rule:evenodd;stroke:#000000;stroke-width:0.265;stroke-linecap:butt;stroke-linejoin:miter;stroke-opacity:1;stroke-miterlimit:4;stroke-dasharray:none"
         d="M 105.45536,50.181546 106.4003,19.754464"
         id="path980"
         inkscape:connector-curvature="0" />
      <path
         style="fill:none;fill-rule:evenodd;stroke:#000000;stroke-width:0.265;stroke-linecap:butt;stroke-linejoin:miter;stroke-opacity:1;stroke-miterlimit:4;stroke-dasharray:none"
         d="M 64.660788,45.758168 93.95001,62.855213"
         id="path982"
         inkscape:connector-curvature="0"
         sodipodi:nodetypes="cc" />
      <text
         id="text996"
         y="74.915733"
         x="145.05588"
         style="font-style:normal;font-weight:normal;font-size:10.58333302px;line-height:1000%;font-family:sans-serif;text-align:start;letter-spacing:0px;word-spacing:0px;text-anchor:start;fill:#000000;fill-opacity:1;stroke:none;stroke-width:0.26458332px;stroke-linecap:butt;stroke-linejoin:miter;stroke-opacity:1"
         xml:space="preserve"><tspan
           style="text-align:start;text-anchor:start;stroke-width:0.26458332px"
           y="74.915733"
           x="145.05588"
           id="tspan994"
           sodipodi:role="line">Site 3</tspan></text>
      <rect
         style="opacity:1;fill:none;fill-opacity:1;stroke:#000000;stroke-width:0.5;stroke-miterlimit:4;stroke-dasharray:none;stroke-dashoffset:0;stroke-opacity:1"
         id="rect888-8-2"
         width="3.7797618"
         height="3.7797618"
         x="128.13393"
         y="75.127975"
         ry="0.20045204" />
      <path
         style="fill:none;fill-rule:evenodd;stroke:#ff0000;stroke-width:0.26499999;stroke-linecap:butt;stroke-linejoin:miter;stroke-miterlimit:4;stroke-dasharray:2.1199999, 2.1199999;stroke-dashoffset:0;stroke-opacity:1"
         d="m 19.39431,-9.5619789 c 0.122346,-0.040782 1.187169,0 1.336348,0 h 0.267269 c 0.08909,0 0.204274,-0.062996 0.26727,0 0.125992,0.1259919 -0.07969,0.3751701 0,0.534539 0.05635,0.1126905 0.227427,0.1477428 0.267269,0.2672694 0.08239,0.2471605 -0.08804,1.427531 0,1.6036173 0.05635,0.1126906 0.227428,0.1477428 0.26727,0.2672694 0.05635,0.1690362 -0.04322,0.3616793 0,0.534539 0.04832,0.1932631 0.204273,0.3455511 0.267269,0.534539 0.02817,0.084518 -0.063,0.2042737 0,0.2672697 0.063,0.062996 0.204274,-0.062996 0.26727,0 0.063,0.062996 -0.063,0.2042734 0,0.2672694 0.063,0.062996 0.204273,-0.062996 0.267269,0 0.063,0.062996 -0.063,0.2042737 0,0.2672696 0.063,0.062996 0.187585,-0.039842 0.26727,0 0.112691,0.056345 0.154579,0.2109243 0.267269,0.2672694 0.09665,0.048327 1.150451,0 1.336348,0 h 1.870887 c 0.178179,0 0.358783,0.029292 0.534539,0 0.362329,-0.060388 0.720601,-0.1511104 1.069078,-0.2672694 0.188988,-0.062996 0.338038,-0.2345195 0.534539,-0.2672696 0.351511,-0.058585 0.717567,0.058585 1.069078,0 0.1965,-0.03275 0.338039,-0.2345193 0.534539,-0.2672694 0.351511,-0.058585 0.712719,0 1.069078,0 h 2.138156 2.939965 c 0.250918,0 1.183204,-0.051048 1.336348,0 0.119526,0.039842 0.147743,0.2274274 0.267269,0.2672694 0.169036,0.056345 0.365503,-0.056345 0.534539,0 0.119527,0.039842 0.162438,0.1973818 0.26727,0.2672696 l 0.534539,0.2672694 c 0.08909,0 0.187585,-0.039842 0.267269,0 0.569181,0.2845903 0.122214,0.9240224 0.26727,1.0690783 0.063,0.062996 0.204273,-0.062996 0.267269,0 0.063,0.062996 -0.03984,0.1875851 0,0.2672694 0.05635,0.1126908 0.17818,0.1781797 0.26727,0.2672696 l 0.267269,0.2672694 c 0.886422,0.8864214 -0.251984,-0.1259919 0.534539,0.2672697 0.112691,0.056345 0.154579,0.2109239 0.26727,0.2672693 0.07968,0.039842 0.17991,-0.01747 0.267269,0 0.360194,0.072039 0.70675,0.2068815 1.069078,0.2672697 0.175756,0.029292 0.35636,0 0.53454,0 h 1.069078 c 0.17818,0 0.358784,-0.029293 0.534539,0 0.362329,0.060388 0.706749,0.2068814 1.069077,0.2672694 0.527267,0.087878 1.076352,-0.087878 1.603619,0 0.196501,0.03275 0.345551,0.2042736 0.534537,0.2672696 0.08452,0.028173 0.178181,0 0.267269,0 h 1.603619 0.53454 c 0.08909,0 0.18275,-0.028173 0.267269,0 0.188986,0.062996 0.345551,0.2042734 0.534538,0.2672697 0.169037,0.056345 0.408548,-0.1259922 0.53454,0 0.063,0.062996 -0.063,0.2042734 0,0.2672693 0.125992,0.12599224 0.375169,-0.079684 0.534538,0 0.112691,0.0563454 0.178181,0.17817971 0.267271,0.26726968 0.08909,0.0890897 0.210923,0.15457858 0.267269,0.26726938 0.03984,0.0796843 -0.063,0.20427341 0,0.26726964 0.063,0.062996 0.239096,-0.0845182 0.267269,0 0.08452,0.25355418 -0.06482,0.54251886 0,0.80180841 0.03056,0.12223035 0.210923,0.15457884 0.267269,0.26726964 0.03984,0.0796843 -0.03984,0.18758505 0,0.26726935 0.03548,0.070963 0.730845,0.7663273 0.801809,0.8018087 0.07968,0.039842 0.187584,-0.039842 0.267269,0 0.112691,0.056345 0.15458,0.2109242 0.267271,0.2672696 0.114147,0.057073 1.230691,0 1.336347,0 h 0.801809 c 0.178179,0 0.365501,-0.056345 0.534538,0 0.119528,0.039842 0.143724,0.2425605 0.267269,0.2672694 0.34944,0.069888 0.712719,0 1.069078,0 0.08909,0 0.182753,-0.028172 0.267271,0 0.188987,0.062996 0.35636,0.1781797 0.534538,0.2672697 0.267269,0 0.539729,-0.052416 0.801809,0 0.195342,0.039068 0.345551,0.2042734 0.534538,0.2672694 0.253556,0.084518 0.548256,-0.084518 0.801809,0 0.119528,0.039842 0.147744,0.2274273 0.267269,0.2672696 0.169037,0.056345 0.36168,-0.043215 0.53454,0 1.29063,0.3226572 -0.01326,0.1270116 0.80181,0.534539 0.07968,0.039842 0.187584,-0.039842 0.267269,0 0.40758,0.20379 0.267268,0.7023521 0.267268,1.0690781 0,0.08909 -0.06299,0.2042734 0,0.2672696 0.0086,0.0086 0.736989,0 0.80181,0 h 1.870887 c 0.08909,0 0.187584,-0.039842 0.267269,0 0.112691,0.056345 0.147743,0.2274271 0.267269,0.2672694 0.169037,0.056345 0.375171,-0.079684 0.53454,0 0.07968,0.039842 -0.063,0.2042734 0,0.2672696 0.06299,0.062996 0.204274,-0.062996 0.267269,0 0.063,0.062996 0,0.1781797 0,0.2672694 v 1.6036176 0.2672689 c 0,0.089091 -0.063,0.2042742 0,0.2672688 0.063,0.062997 0.187584,-0.039841 0.267269,0 0.112691,0.056346 0.15458,0.2109259 0.267271,0.2672715 0.213815,0.1069076 0.587992,-0.1069075 0.801807,0 0.112691,0.056343 0.15458,0.2109232 0.267271,0.2672689 0.07968,0.039841 0.187584,-0.039844 0.267269,0 0.112691,0.056346 0.154577,0.2109232 0.267269,0.2672688 0.07968,0.039844 0.204274,-0.062995 0.267269,0 0.063,0.062997 -0.063,0.2042742 0,0.2672689 0.063,0.062997 0.204274,-0.062995 0.267271,0 0.140862,0.1408641 0.204272,0.3455511 0.267269,0.5345403 0.06052,0.1815571 0,1.526143 0,1.870887 v 0.267269 c 0,0.08909 -0.063,0.204274 0,0.267269 0.06431,0.06431 1.004763,-0.06431 1.069078,0 0.063,0.063 -0.063,0.204274 0,0.267269 0.125992,0.125992 0.375171,-0.07968 0.534538,0 0.03926,0.01963 0.797282,0.783698 0.801809,0.801809 0.06146,0.245824 0,1.722437 0,2.138156 0,0.08909 -0.063,0.204274 0,0.267269 0.05464,0.05464 0.695838,-0.05298 0.801809,0 0.112691,0.05635 0.154578,0.210926 0.267269,0.267271 0.146166,0.07308 0.619919,-0.04547 0.801809,0 0.273315,0.06833 0.528492,0.198941 0.801809,0.267269 0.08643,0.02162 0.182751,-0.02817 0.267269,0 0.188989,0.063 0.345551,0.204275 0.534538,0.267269 0.08452,0.02817 0.187587,-0.03984 0.267271,0 0.112689,0.05635 0.147744,0.227428 0.267269,0.267272 0.169037,0.05634 0.365504,-0.05635 0.534538,0 0.119528,0.03984 0.15458,0.210923 0.267271,0.267269 0.36866,0.184329 0.239065,-0.323679 0.534538,0.267268 0.03455,0.0691 0,1.414177 0,1.603619 v 0.267269 c 0,0.08909 -0.06299,0.204274 0,0.267268 0.133636,0.133636 0.668174,-0.133635 0.801809,0 0.063,0.063 -0.063,0.204275 0,0.267269 0.125992,0.125992 0.408546,-0.125992 0.534541,0 0.06299,0.063 -0.063,0.204275 0,0.267272 0.06299,0.06299 0.204271,-0.063 0.267269,0 0.06299,0.06299 0,0.178178 0,0.267269 v 0.267269 2.138156 c 0,0.08909 -0.063,0.204274 0,0.267268 0.125992,0.125992 0.408545,-0.125991 0.534537,0 0.063,0.063 -0.06299,0.204275 0,0.267272 0.063,0.063 0.204274,-0.063 0.267272,0 0.06299,0.063 0,0.178178 0,0.267269 v 0.801809 5.078119 0.801809 c -0.08909,0.08909 -0.242562,0.143724 -0.267272,0.267269 -0.06989,0.34944 0,0.712719 0,1.06908 0,0.08909 0.03984,0.187585 0,0.267269 -0.05634,0.112692 -0.210923,0.154578 -0.267269,0.267269 -0.02741,0.05483 -0.03769,0.764117 0,0.801809 0.05464,0.05464 0.695839,-0.05298 0.80181,0 0.112691,0.05635 0.178178,0.178179 0.267268,0.267269 0.08909,0.08909 0.210924,0.15458 0.267269,0.267269 0.04063,0.08126 0,0.884523 0,1.069078 v 1.603619 2.672693 0.267272 c 0,0.08909 0.063,0.204271 0,0.267269 -0.06299,0.06299 -0.204271,-0.063 -0.267269,0 -0.06299,0.06299 0.063,0.204274 0,0.267269 -0.06299,0.063 -0.204274,-0.063 -0.267268,0 -0.063,0.063 0.06299,0.204274 0,0.267268 -0.063,0.063 -0.204275,-0.06299 -0.267269,0 -0.063,0.063 0.06299,0.204275 0,0.267272 -0.063,0.063 -0.204274,-0.063 -0.267272,0 -0.06299,0.063 -0.06299,0.204271 0,0.267269 0.063,0.06299 0.204274,-0.063 0.267272,0 0.08276,0.08276 -0.08276,1.253588 0,1.336347 0.125992,0.125992 0.408546,-0.125992 0.534537,0 0.063,0.063 0,0.178181 0,0.267268 0,0.120367 0.04067,0.720471 0,0.80181 -0.05635,0.112691 -0.210923,0.15458 -0.267268,0.267269 -0.03984,0.07968 0,0.178181 0,0.267271 v 0.267269 1.603616 c 0,0.08909 0.06299,0.204274 0,0.267271 -0.063,0.063 -0.204275,-0.063 -0.267269,0 -0.02673,0.02673 -0.02673,0.775081 0,0.801809 0.133633,0.133633 0.668173,-0.133635 0.801806,0 0.063,0.063 0,0.178179 0,0.267269 v 1.603616 c 0,0.178181 0.07968,0.375171 0,0.53454 -0.03984,0.07968 -0.19314,-0.04942 -0.267269,0 -0.209663,0.139774 -0.383349,0.332952 -0.534537,0.534538 -0.239054,0.318738 -0.313537,0.737571 -0.534541,1.069078 -0.1622,0.2433 -0.683363,0.564917 -0.801809,0.801809 -0.125992,0.251984 -0.141277,0.549826 -0.267269,0.801809 -0.05634,0.112692 -0.210923,0.154578 -0.267268,0.267269 -0.03984,0.07969 0.06299,0.204274 0,0.267269 -0.063,0.063 -0.204275,-0.063 -0.267269,0 -0.063,0.063 0,0.178181 0,0.267272 0,0.08909 -0.063,0.204271 0,0.267268 0.06299,0.06299 0.267269,-0.08909 0.267269,0 0,0.08909 -0.267269,0.08909 -0.267269,0 0,-0.08909 0.204271,-0.063 0.267269,0 0.06299,0.06299 0.06299,0.204275 0,0.267269 -0.063,0.063 -0.187587,-0.03984 -0.267269,0 -0.112692,0.05635 -0.15458,0.210924 -0.267272,0.267269 -0.07968,0.03984 -0.204271,-0.06299 -0.267269,0 -0.063,0.063 0.063,0.204274 0,0.267272 -0.063,0.06299 -0.204274,-0.063 -0.267269,0 -0.140864,0.140861 -0.156768,0.368784 -0.267271,0.534537 -0.06989,0.104834 -0.178178,0.178181 -0.267269,0.267269 -0.08909,0.08909 -0.154577,0.210926 -0.267269,0.267272 -0.07968,0.03984 -0.204274,-0.063 -0.267269,0 -0.063,0.06299 0,0.178178 0,0.267269 0,0.126015 0.01212,1.324234 0,1.336346 -0.063,0.063 -0.187586,-0.03984 -0.267271,0 -0.112689,0.05635 -0.154578,0.210926 -0.267269,0.267269 -0.07968,0.03984 -0.227428,-0.07968 -0.267269,0 -0.07968,0.159369 0.09884,0.386287 0,0.534541 -0.65106,0.97659 -0.391252,-0.286571 -0.801809,0.534537 -0.05299,0.105971 0.05464,0.74717 0,0.80181 -0.063,0.063 -0.178178,0 -0.267269,0 h -0.267269 c -0.09815,0 -1.058322,-0.01074 -1.069078,0 -0.063,0.063 0.063,0.204274 0,0.267268 -0.063,0.063 -0.204274,-0.06299 -0.267271,0 -0.063,0.063 0,0.178181 0,0.267272 v 0.534538 1.069078 c 0,0.267271 0.0378,0.537226 0,0.801809 -0.39488,2.764171 -0.173667,-0.842407 -0.534538,2.405425 -0.03935,0.354182 0.0442,0.71547 0,1.069078 -0.04556,0.36449 -0.221708,0.704588 -0.267269,1.069078 -0.0442,0.353608 0,0.712719 0,1.069078 0,0.267271 0.05241,0.539731 0,0.801809 -0.215106,1.075526 -0.195035,0.122799 -0.53454,0.801809 -0.18433,0.36866 0.323678,0.239065 -0.267269,0.534538 -0.213815,0.106908 -0.587994,-0.106907 -0.801809,0 -0.112691,0.05635 -0.154578,0.210926 -0.267269,0.267272 -0.09665,0.04833 -1.150451,0 -1.336347,0 -0.09815,0 -1.058323,-0.01074 -1.069078,0 -0.125992,0.125991 0.07969,0.375168 0,0.534537 -0.05635,0.112692 -0.236712,0.14504 -0.267271,0.267269 -0.06482,0.259292 0.06482,0.54252 0,0.801809 -0.03056,0.12223 -0.227426,0.147744 -0.267269,0.267269 -0.111467,0.334399 0.09545,1.221809 0,1.603619 -0.06833,0.273314 -0.198941,0.528494 -0.267269,0.801809 -0.133636,0.534537 0.267269,0 0,0.801806 -0.03984,0.119528 -0.210926,0.15458 -0.267269,0.267272 -0.07968,0.159369 0.125992,0.408546 0,0.534538 -0.063,0.063 -0.187587,-0.03984 -0.267271,0 -0.112689,0.05635 -0.154578,0.210925 -0.267269,0.267271 -0.08134,0.04067 -0.681443,0 -0.80181,0 -0.06482,0 -0.793212,-0.0086 -0.801806,0 -0.063,0.063 0,0.178178 0,0.267269 0,0.356359 0.08643,0.723357 0,1.069078 -0.03056,0.122229 -0.197382,0.162438 -0.267272,0.267269 -0.1105,0.165753 -0.204271,0.345551 -0.267268,0.53454 -0.11616,0.348475 -0.130847,0.728022 -0.267269,1.069078 -0.0468,0.11698 -0.191675,0.166476 -0.267269,0.267269 -0.192733,0.256974 -0.390888,0.514501 -0.53454,0.801809 -0.372129,0.744255 -0.178467,0.980273 -0.80181,1.603616 -0.08909,0.08909 -0.162438,0.197382 -0.267269,0.267269 -0.165753,0.110503 -0.368786,0.156768 -0.53454,0.267271 -0.10483,0.06989 -0.154577,0.210923 -0.267269,0.267269 -0.18461,0.0923 -1.242531,-0.09382 -1.336347,0 -0.125992,0.125992 0.125992,0.408546 0,0.534538 -0.125992,0.125992 -0.408548,-0.125992 -0.53454,0 -0.063,0.063 0.063,0.204274 0,0.267271 -0.05857,0.05857 -1.157187,-0.04479 -1.336347,0 -0.273314,0.06833 -0.525552,0.212019 -0.801809,0.267269 -0.174718,0.03494 -0.365501,-0.05635 -0.534538,0 -0.119528,0.03984 -0.147743,0.227428 -0.267269,0.267269 -0.169037,0.05635 -0.365503,-0.05635 -0.53454,0 -0.119526,0.03984 -0.162438,0.197382 -0.267269,0.267269 -0.165753,0.110503 -0.393676,0.126407 -0.53454,0.267271 -0.140862,0.140862 -0.156766,0.368785 -0.267269,0.534538 -0.376052,0.564079 -0.864449,0.250563 -1.069078,1.069078 -0.05687,0.227505 0.07672,1.182918 0,1.336347 -0.05635,0.112691 -0.227428,0.147743 -0.267269,0.267272 -0.05635,0.169034 0,0.356359 0,0.534537 0,0.08909 0.03984,0.187587 0,0.267269 -0.05635,0.112691 -0.197382,0.162438 -0.267269,0.267272 -0.110503,0.165753 -0.156768,0.368784 -0.267271,0.534537 -0.409342,0.614016 -0.152662,-0.114604 -0.801807,0.534541 -0.140864,0.140861 -0.09645,0.432046 -0.267271,0.534537 -0.314979,0.18899 -0.728023,0.13085 -1.069078,0.267272 -0.116981,0.04679 -0.162439,0.197379 -0.267269,0.267269 -0.165754,0.1105 -0.35636,0.178178 -0.534538,0.267269 -0.178181,0.08909 -0.349578,0.193283 -0.53454,0.267268 -0.298765,0.119507 -1.62001,0.550934 -1.870888,0.80181 -0.140861,0.140864 -0.101515,0.424037 -0.267268,0.53454 -0.267269,0.178178 -0.534541,-0.08909 -0.80181,0 -0.188986,0.063 -0.341275,0.218953 -0.534537,0.267269 -1.069079,0.267269 -0.133636,-0.133636 -0.80181,0 -0.360193,0.07204 -0.706749,0.20688 -1.069078,0.267269 -0.175755,0.02929 -0.365503,-0.05635 -0.534539,0 -0.119526,0.03984 -0.143724,0.242559 -0.267269,0.267268 -0.349439,0.06989 -0.714899,-0.03935 -1.069079,0 -0.451492,0.05017 -0.886642,0.203029 -1.336347,0.267272 -0.176389,0.02519 -0.358784,-0.02929 -0.534539,0 -0.362329,0.06039 -0.715885,0.166357 -1.069078,0.267269 -0.270887,0.0774 -0.522914,0.227428 -0.801809,0.267269 -0.352778,0.0504 -0.75034,-0.159369 -1.069078,0"
         id="path1124"
         inkscape:connector-curvature="0"
         sodipodi:nodetypes="csssccccccscscsccsscssssscsscsccscccccccccsscsccscscccccccccccccccsscssccccccsccscsscccccscsccsccccccccsscccccscccccccccccssscsccccscsccccsccccsccccscsccsccccccccccccsccscsccccssccccsccccscsscccccccscscsccccccssscccscsccscscscccscscccccccsccscsccccccsccccsscccccccsccccsccccccccccccccccccccccc" />
    </g>
  </g>
</svg>
